# xmcd
#
# Track frame offsets:
#	150
#	20841
#	43911
#	62059
#	80510
#	97149
#	116324
#	134195
#	151811
#	167878
#	183322
#	205206
#	225837
#	244121
#	258315
#	276656
#
# Disc length: 3922 seconds
#
# Revision: 4
# Processed by: cddbd v1.5.2PL0 Copyright (c) Steve Scherf et al.
# Submitted via: EasyCDDAExtractor 2010.4.0.0
#
DISCID=e70f5010
DTITLE=Various Artist - Turkce Pop 120
DYEAR=2012
DGENRE=Turkce Pop
TTITLE0=Ferhat Gocer - Don Diyemedim
TTITLE1=Hande Yener - Acele Etme
TTITLE2=Kenan Dogulu - Guzeller Icinden
TTITLE3=Burcu Gunes - Ay Sahit
TTITLE4=Mirkelam - Ask Garibi
TTITLE5=Goksel - Arka Bahcemde
TTITLE6=Ilhan Sesen - Sarilinca Sana
TTITLE7=Mufide Inselel - Bunaldim
TTITLE8=Sefarad - Ben Seni Severim
TTITLE9=Nilgul - Pervane
TTITLE10=Emre Altug - Ibret-i Alem
TTITLE11=Bengu - Gel Gel
TTITLE12=Gece Yolculari - Unut Beni
TTITLE13=Meyra - Efendim
TTITLE14=Umit Sayin - Kirilgan
TTITLE15=Enbe Orkestrasi - Sev Kardesim
EXTD=
EXTT0=
EXTT1=
EXTT2=
EXTT3=
EXTT4=
EXTT5=
EXTT6=
EXTT7=
EXTT8=
EXTT9=
EXTT10=
EXTT11=
EXTT12=
EXTT13=
EXTT14=
EXTT15=
PLAYORDER=
